<svg width="24" height="25" viewBox="0 0 24 25" fill="none" xmlns="http://www.w3.org/2000/svg">
<path fill-rule="evenodd" clip-rule="evenodd" d="M14.25 1.75634C14.1881 1.75213 14.1258 1.75 14.0633 1.75H8C5.37665 1.75 3.25 3.87665 3.25 6.5V18.5C3.25 21.1234 5.37665 23.25 8 23.25H16C18.6234 23.25 20.75 21.1234 20.75 18.5V9.25H17C15.4812 9.25 14.25 8.01878 14.25 6.5V1.75634ZM7.25 12.5C7.25 12.0858 7.58579 11.75 8 11.75H16C16.4142 11.75 16.75 12.0858 16.75 12.5C16.75 12.9142 16.4142 13.25 16 13.25H8C7.58579 13.25 7.25 12.9142 7.25 12.5ZM8 16.75C7.58579 16.75 7.25 17.0858 7.25 17.5C7.25 17.9142 7.58579 18.25 8 18.25H12C12.4142 18.25 12.75 17.9142 12.75 17.5C12.75 17.0858 12.4142 16.75 12 16.75H8Z" fill="#27AAE2"/>
<path d="M20.3215 7.75C20.2584 7.65059 20.1887 7.5549 20.1126 7.46359L16.1759 2.73949C16.048 2.58601 15.905 2.44837 15.75 2.32802V6.5C15.75 7.19036 16.3096 7.75 17 7.75H20.3215Z" fill="#27AAE2"/>
</svg>
