<svg width="24" height="25" viewBox="0 0 24 25" fill="none" xmlns="http://www.w3.org/2000/svg">
<path d="M5 5.56048C5 5.5148 5.02346 5.35193 5.33434 5.08943C5.64112 4.83039 6.13741 4.55732 6.82795 4.3107C8.20135 3.8202 10.1567 3.5 12.3589 3.5C14.561 3.5 16.5164 3.8202 17.8898 4.3107C18.5803 4.55732 19.0766 4.83039 19.3834 5.08943C19.6943 5.35193 19.7177 5.5148 19.7177 5.56048C19.7177 5.60616 19.6943 5.76904 19.3834 6.03154C19.0766 6.29058 18.5803 6.56365 17.8898 6.81027C16.5164 7.30077 14.561 7.62097 12.3589 7.62097C10.1567 7.62097 8.20135 7.30077 6.82795 6.81027C6.13741 6.56365 5.64112 6.29058 5.33434 6.03154C5.02346 5.76904 5 5.60616 5 5.56048Z" fill="#27AAE2"/>
<path d="M18.4838 8.47351C18.7919 8.36348 19.0866 8.24233 19.3627 8.10956C19.5244 8.03181 19.7177 8.14661 19.7177 8.32601V10.2702C19.7177 10.3158 19.6943 10.4787 19.3834 10.7412C19.0766 11.0003 18.5803 11.2733 17.8898 11.5199C16.5164 12.0104 14.561 12.3306 12.3589 12.3306C10.1567 12.3306 8.20135 12.0104 6.82795 11.5199C6.13741 11.2733 5.64112 11.0003 5.33434 10.7412C5.02346 10.4787 5 10.3158 5 10.2702V8.32601C5 8.14661 5.19338 8.03181 5.35507 8.10956C5.63114 8.24233 5.92586 8.36348 6.23394 8.47351C7.84353 9.04836 10.0091 9.3871 12.3589 9.3871C14.7086 9.3871 16.8742 9.04836 18.4838 8.47351Z" fill="#27AAE2"/>
<path d="M18.4838 13.1832C18.7919 13.0732 19.0866 12.952 19.3627 12.8192C19.5244 12.7415 19.7177 12.8563 19.7177 13.0357V14.9798C19.7177 15.0255 19.6943 15.1884 19.3834 15.4509C19.0766 15.7099 18.5803 15.983 17.8898 16.2296C16.5164 16.7201 14.561 17.0403 12.3589 17.0403C10.1567 17.0403 8.20135 16.7201 6.82795 16.2296C6.13741 15.983 5.64112 15.7099 5.33434 15.4509C5.02346 15.1884 5 15.0255 5 14.9798V13.0357C5 12.8563 5.19339 12.7415 5.35507 12.8192C5.63114 12.952 5.92586 13.0732 6.23394 13.1832C7.84353 13.758 10.0091 14.0968 12.3589 14.0968C14.7086 14.0968 16.8742 13.758 18.4838 13.1832Z" fill="#27AAE2"/>
<path d="M18.4838 17.8929C18.7919 17.7828 19.0866 17.6617 19.3627 17.5289C19.5244 17.4512 19.7177 17.566 19.7177 17.7454V19.6895C19.7177 19.7352 19.6943 19.8981 19.3834 20.1606C19.0766 20.4196 18.5803 20.6927 17.8898 20.9393C16.5164 21.4298 14.561 21.75 12.3589 21.75C10.1567 21.75 8.20135 21.4298 6.82795 20.9393C6.13741 20.6927 5.64112 20.4196 5.33434 20.1606C5.02346 19.8981 5 19.7352 5 19.6895V17.7454C5 17.566 5.19339 17.4512 5.35507 17.5289C5.63114 17.6617 5.92586 17.7828 6.23394 17.8929C7.84353 18.4677 10.0091 18.8065 12.3589 18.8065C14.7086 18.8065 16.8742 18.4677 18.4838 17.8929Z" fill="#27AAE2"/>
</svg>
