<svg width="32" height="23" viewBox="0 0 32 23" fill="none" xmlns="http://www.w3.org/2000/svg">
<path d="M31.7181 1.85628L22.013 11.4989L31.7181 21.1416C31.8936 20.7749 32 20.3695 32 19.9366V3.06125C32 2.6283 31.8936 2.22298 31.7181 1.85628Z" fill="#27AAE2"/>
<path d="M29.1884 0.25H2.81281C2.37986 0.25 1.97454 0.35644 1.60785 0.531881L14.0121 12.8736C15.1088 13.9704 16.8924 13.9704 17.9891 12.8736L30.3933 0.531881C30.0266 0.35644 29.6213 0.25 29.1884 0.25Z" fill="#27AAE2"/>
<path d="M0.281881 1.85628C0.10644 2.22298 0 2.6283 0 3.06125V19.9366C0 20.3696 0.10644 20.7749 0.281881 21.1416L9.98703 11.4989L0.281881 1.85628Z" fill="#27AAE2"/>
<path d="M20.6882 12.8253L19.3149 14.1986C17.4874 16.0261 14.5137 16.0261 12.6863 14.1986L11.313 12.8253L1.60785 22.4679C1.97454 22.6434 2.37986 22.7498 2.81281 22.7498H29.1884C29.6213 22.7498 30.0266 22.6434 30.3933 22.4679L20.6882 12.8253Z" fill="#27AAE2"/>
</svg>
