<svg width="20" height="19" viewBox="0 0 20 19" fill="none" xmlns="http://www.w3.org/2000/svg">
<path d="M8.97183 0.708465C9.43822 -0.0665192 10.5618 -0.0665185 11.0282 0.708465L13.3586 4.58087C13.5262 4.85928 13.7995 5.05784 14.116 5.13116L18.5191 6.15091C19.4002 6.35499 19.7474 7.42356 19.1545 8.10661L16.1918 11.5196C15.9788 11.765 15.8744 12.0863 15.9025 12.41L16.2932 16.9127C16.3714 17.8138 15.4625 18.4742 14.6296 18.1214L10.4681 16.3583C10.1689 16.2316 9.83109 16.2316 9.53189 16.3583L5.37038 18.1214C4.53754 18.4742 3.62856 17.8138 3.70677 16.9127L4.09754 12.41C4.12563 12.0863 4.02124 11.765 3.80823 11.5196L0.845503 8.1066C0.252573 7.42356 0.599771 6.35499 1.48095 6.15091L5.88397 5.13116C6.20053 5.05784 6.47383 4.85928 6.64138 4.58087L8.97183 0.708465Z" fill="#27AAE2"/>
</svg>
