<svg width="23" height="26" viewBox="0 0 23 26" fill="none" xmlns="http://www.w3.org/2000/svg">
<path d="M2.16 7.67004C1.27003 6.48341 2.11672 4.79004 3.6 4.79004H19.1368C20.6201 4.79004 21.4668 6.48341 20.5768 7.67004L19.9474 8.50934C19.2983 9.37482 18.9474 10.4275 18.9474 11.5093V21.0006C18.9474 23.2097 17.1565 25.0006 14.9474 25.0006H7.78947C5.58033 25.0006 3.78947 23.2097 3.78947 21.0006V11.5093C3.78947 10.4275 3.43858 9.37482 2.78947 8.50934L2.16 7.67004Z" stroke="#27AAE2" stroke-width="2"/>
<path d="M13.8945 18.6844L13.8945 11.1055" stroke="#27AAE2" stroke-width="2" stroke-linecap="round" stroke-linejoin="round"/>
<path d="M8.8418 18.6844L8.8418 11.1055" stroke="#27AAE2" stroke-width="2" stroke-linecap="round" stroke-linejoin="round"/>
<path d="M16.4217 4.78947L15.6144 2.36754C15.3421 1.55086 14.5779 1 13.717 1H9.02108C8.16022 1 7.39594 1.55086 7.12372 2.36755L6.31641 4.78947" stroke="#27AAE2" stroke-width="2" stroke-linecap="round"/>
</svg>
