<svg width="30" height="22" viewBox="0 0 30 22" fill="none" xmlns="http://www.w3.org/2000/svg">
<path fill-rule="evenodd" clip-rule="evenodd" d="M26.7379 0.809494C28.0229 1.15546 29.0361 2.16863 29.3821 3.45363C30.0246 5.80124 29.9999 10.6941 29.9999 10.6941C29.9999 10.6941 29.9999 15.5623 29.3821 17.9099C29.0361 19.1949 28.0229 20.2081 26.7379 20.5541C24.3903 21.1718 14.9999 21.1718 14.9999 21.1718C14.9999 21.1718 5.63424 21.1718 3.26193 20.5293C1.97693 20.1834 0.963752 19.1702 0.61779 17.8852C0 15.5623 0 10.6694 0 10.6694C0 10.6694 0 5.80124 0.61779 3.45363C0.963752 2.16863 2.00164 1.13074 3.26193 0.784782C5.60953 0.166992 14.9999 0.166992 14.9999 0.166992C14.9999 0.166992 24.3903 0.166992 26.7379 0.809494ZM19.8187 10.4978L12.0098 14.9953V6.00033L19.8187 10.4978Z" fill="white"/>
</svg>
