<svg width="24" height="26" viewBox="0 0 24 26" fill="none" xmlns="http://www.w3.org/2000/svg">
<path d="M8.55794 21.5458C10.7273 21.5458 12.4859 19.9927 12.4859 17.6178V0H17.1967C16.9325 3.213 20.1265 6.31667 23.649 6.24569V10.6754C20.6365 10.6754 18.0749 9.40162 17.1833 8.69471V17.6178C17.1833 21.5458 14.0932 26 8.55794 26C3.02266 26 0 21.5458 0 17.6178C0 12.0738 5.86696 8.85847 9.75277 9.64433V14.1562C9.55729 14.0871 9.05317 13.9849 8.62379 13.9849C6.4364 13.9042 4.62995 15.6783 4.62995 17.6178C4.62995 19.7871 6.38857 21.5458 8.55794 21.5458Z" fill="white"/>
</svg>
