<svg width="24" height="24" viewBox="0 0 24 24" fill="none" xmlns="http://www.w3.org/2000/svg">
<path d="M12 0C5.37522 0 0 5.37522 0 12C0 14.6527 0.858639 17.096 2.31065 19.0855L0.78185 23.6091L5.54974 22.1222C7.41361 23.3089 9.62653 24 12 24C18.6248 24 24 18.6248 24 12C24 5.37522 18.6248 0 12 0ZM17.4939 18.4363C15.3159 19.3089 12.719 18.4642 9.87784 16.3072C7.03665 14.1501 5.16579 11.1134 5.04014 8.85864C4.91448 6.60384 6.75044 5.46597 7.74869 5.47295C8.74695 5.47993 9.84293 8.67016 9.85689 9.15881C9.87086 9.65445 8.63525 10.534 8.58639 10.9529C8.53752 11.3717 10.2688 13.438 11.0017 13.9965C11.7277 14.548 13.2286 15.6091 14.0035 15.5113C14.7714 15.4066 15.281 13.8639 15.7696 13.7661C16.2583 13.6684 18.925 14.9948 19.1902 15.3368C19.4555 15.6859 19.4276 17.6684 17.4939 18.4363Z" fill="white"/>
</svg>
