<svg width="30" height="30" viewBox="0 0 30 30" fill="none" xmlns="http://www.w3.org/2000/svg">
<path d="M15.0006 0.454102C11.0504 0.454102 10.5546 0.471375 9.00318 0.541981C7.45474 0.61289 6.3978 0.858041 5.47298 1.21774C4.51634 1.58925 3.70485 2.08622 2.89639 2.89501C2.08733 3.7035 1.59037 4.51501 1.21766 5.47137C0.85706 6.39653 0.611614 7.4538 0.541919 9.00168C0.472527 10.5532 0.454346 11.0493 0.454346 14.9996C0.454346 18.9499 0.471921 19.4441 0.542222 20.9956C0.613432 22.5441 0.858576 23.6011 1.21796 24.5259C1.58977 25.4826 2.08672 26.2941 2.89548 27.1026C3.70364 27.9117 4.51513 28.4099 5.47116 28.7814C6.39659 29.1411 7.45383 29.3862 9.00197 29.4571C10.5534 29.5277 11.0489 29.545 14.9988 29.545C18.9492 29.545 19.4435 29.5277 20.9949 29.4571C22.5434 29.3862 23.6015 29.1411 24.527 28.7814C25.4833 28.4099 26.2936 27.9117 27.1017 27.1026C27.9108 26.2941 28.4077 25.4826 28.7805 24.5262C29.138 23.6011 29.3835 22.5438 29.4562 20.9959C29.5259 19.4444 29.5441 18.9499 29.5441 14.9996C29.5441 11.0493 29.5259 10.5535 29.4562 9.00198C29.3835 7.4535 29.138 6.39652 28.7805 5.47168C28.4077 4.51501 27.9108 3.7035 27.1017 2.89501C26.2927 2.08592 25.4836 1.58895 24.526 1.21774C23.5988 0.858041 22.5413 0.61289 20.9928 0.541981C19.4413 0.471375 18.9474 0.454102 14.996 0.454102H15.0006ZM13.6958 3.07531C14.083 3.07471 14.5151 3.07531 15.0006 3.07531C18.8841 3.07531 19.3444 3.08925 20.878 3.15895C22.2961 3.2238 23.0658 3.46077 23.5785 3.65986C24.2573 3.9235 24.7412 4.23865 25.25 4.74774C25.759 5.25683 26.0742 5.74168 26.3384 6.42046C26.5375 6.93259 26.7748 7.70228 26.8393 9.12046C26.909 10.6538 26.9242 11.1144 26.9242 14.9962C26.9242 18.878 26.909 19.3386 26.8393 20.872C26.7745 22.2902 26.5375 23.0599 26.3384 23.572C26.0748 24.2508 25.759 24.7341 25.25 25.2429C24.7409 25.752 24.2576 26.0671 23.5785 26.3308C23.0664 26.5308 22.2961 26.7671 20.878 26.832C19.3447 26.9017 18.8841 26.9168 15.0006 26.9168C11.1167 26.9168 10.6565 26.9017 9.12317 26.832C7.70504 26.7665 6.93536 26.5296 6.42235 26.3305C5.74358 26.0668 5.25875 25.7517 4.74967 25.2426C4.24059 24.7335 3.92545 24.2499 3.66122 23.5708C3.46213 23.0586 3.22487 22.2889 3.16032 20.8708C3.09063 19.3374 3.07669 18.8768 3.07669 14.9926C3.07669 11.1083 3.09063 10.6502 3.16032 9.11683C3.22517 7.69865 3.46213 6.92895 3.66122 6.41622C3.92485 5.73743 4.24059 5.25259 4.74967 4.74349C5.25875 4.2344 5.74358 3.91925 6.42235 3.65501C6.93506 3.45501 7.70504 3.21865 9.12317 3.1535C10.465 3.09289 10.9849 3.07471 13.6958 3.07168V3.07531ZM22.7646 5.49046C21.801 5.49046 21.0192 6.27137 21.0192 7.23531C21.0192 8.19895 21.801 8.98077 22.7646 8.98077C23.7282 8.98077 24.51 8.19895 24.51 7.23531C24.51 6.27168 23.7282 5.48986 22.7646 5.48986V5.49046ZM15.0006 7.52986C10.8755 7.52986 7.5311 10.8744 7.5311 14.9996C7.5311 19.1247 10.8755 22.4677 15.0006 22.4677C19.1256 22.4677 22.4688 19.1247 22.4688 14.9996C22.4688 10.8744 19.1253 7.52986 15.0003 7.52986H15.0006ZM15.0006 10.1511C17.6781 10.1511 19.8489 12.3217 19.8489 14.9996C19.8489 17.6771 17.6781 19.848 15.0006 19.848C12.3228 19.848 10.1522 17.6771 10.1522 14.9996C10.1522 12.3217 12.3228 10.1511 15.0006 10.1511Z" fill="white"/>
</svg>
