<svg width="32" height="32" viewBox="0 0 32 32" fill="none" xmlns="http://www.w3.org/2000/svg">
<g clip-path="url(#clip0_187_4736)">
<path d="M14.8401 0.181055C13.4838 0.568555 12.0901 1.78105 11.0151 3.50605C10.6588 4.0748 10.0463 5.3123 9.74006 6.06855C9.60256 6.41855 9.49631 6.70605 9.50881 6.71855C9.52131 6.7248 9.84006 6.79355 10.2151 6.8623C11.6401 7.14355 13.2151 7.3248 14.8276 7.3998L15.4338 7.4248V3.74355C15.4338 0.274805 15.4276 0.062305 15.3276 0.0685554C15.2651 0.0685554 15.0463 0.118555 14.8401 0.181055Z" fill="#27AAE2"/>
<path d="M16.5625 3.74355V7.4248L17.175 7.3998C18.7812 7.3248 20.3563 7.14355 21.7812 6.8623C22.1625 6.79355 22.475 6.7248 22.4875 6.71855C22.525 6.6873 21.975 5.3873 21.6188 4.6748C20.5625 2.5748 19.3563 1.20605 17.9062 0.481054C17.525 0.287304 16.8313 0.062304 16.6313 0.062304C16.5813 0.062304 16.5625 1.0998 16.5625 3.74355Z" fill="#27AAE2"/>
<path d="M11.358 0.693496C9.62054 1.2185 7.82679 2.131 6.35179 3.23725C5.71429 3.72475 4.53929 4.781 4.50804 4.89975C4.50179 4.93725 4.62679 5.031 4.78929 5.106C4.95179 5.181 5.35804 5.356 5.68304 5.49975C6.48929 5.856 8.28929 6.481 8.34554 6.4185C8.35179 6.41225 8.46429 6.12475 8.58929 5.781C9.23929 4.03725 10.2393 2.41225 11.4955 1.04975C11.7768 0.749746 11.9955 0.499746 11.983 0.505996C11.9705 0.505996 11.6893 0.587246 11.358 0.693496Z" fill="#27AAE2"/>
<path d="M20.4422 0.987532C20.9922 1.58128 21.8984 2.77503 22.2547 3.38128C22.6109 4.00003 23.2547 5.35628 23.4672 5.95003C23.6672 6.51878 23.5234 6.50628 24.8109 6.08128C25.6797 5.78753 27.4984 5.01878 27.4984 4.93753C27.4984 4.84378 26.2484 3.70003 25.6672 3.26253C24.1234 2.10003 22.1734 1.11878 20.4484 0.637532L19.9922 0.506282L20.4422 0.987532Z" fill="#27AAE2"/>
<path d="M3.18125 6.45C2.3125 7.63125 1.76875 8.59375 1.2 9.9375C0.58125 11.4125 0.1625 13.2 0.0375 14.9187L0 15.4375H3.4375H6.875V14.9187C6.875 13.2062 7.2375 10.5812 7.75625 8.50625C7.8875 7.975 7.99375 7.5375 7.98125 7.53125C7.975 7.525 7.63125 7.4125 7.21875 7.28125C6.225 6.975 5.51875 6.69375 4.50625 6.2125C4.04375 5.99375 3.66875 5.8125 3.6625 5.8125C3.65625 5.8125 3.4375 6.1 3.18125 6.45Z" fill="#27AAE2"/>
<path d="M27.9041 6.0125C27.1479 6.4125 26.0041 6.88125 25.0291 7.2C24.4791 7.375 24.0229 7.525 24.0166 7.53125C24.0041 7.5375 24.1104 7.975 24.2416 8.50625C24.7604 10.5812 25.1229 13.2062 25.1229 14.9187V15.4375H28.5604H31.9979L31.9604 14.9187C31.7291 11.7938 30.6916 9 28.8166 6.45C28.5604 6.1 28.3291 5.8125 28.3104 5.8125C28.2916 5.81875 28.1104 5.90625 27.9041 6.0125Z" fill="#27AAE2"/>
<path d="M9.03281 8.14375C8.52656 9.8875 8.12656 12.425 8.02031 14.5125L7.97656 15.4375H11.7078H15.4328V12.0062V8.575L14.6391 8.5375C12.8828 8.44375 11.3891 8.2625 9.90781 7.9625C9.50156 7.88125 9.15781 7.8125 9.14531 7.8125C9.13906 7.8125 9.08281 7.9625 9.03281 8.14375Z" fill="#27AAE2"/>
<path d="M22.3438 7.9125C21.025 8.20625 19.1125 8.45 17.3938 8.5375L16.5625 8.575V12.0063V15.4375H20.2875H24.0188L23.975 14.5125C23.8875 12.775 23.6063 10.7625 23.2125 9.13125C22.975 8.1375 22.875 7.8125 22.7938 7.81875C22.75 7.825 22.55 7.8625 22.3438 7.9125Z" fill="#27AAE2"/>
<path d="M0.0296875 17.075C0.229687 19.7562 1.05469 22.2938 2.46094 24.5312C2.84219 25.1437 3.62344 26.1875 3.69844 26.1875C3.72344 26.1875 3.99844 26.0625 4.29844 25.9125C5.15469 25.4812 6.01719 25.1313 7.02344 24.8C7.54219 24.6313 7.96719 24.4875 7.97969 24.475C7.99219 24.4688 7.91719 24.1375 7.81094 23.7437C7.30469 21.8 6.98594 19.7 6.88594 17.5312L6.84219 16.5938L3.41719 16.575L-0.0078125 16.5625L0.0296875 17.075Z" fill="#27AAE2"/>
<path d="M8 16.9189C8 17.9502 8.25625 20.2939 8.50625 21.6127C8.66875 22.4814 9.0625 24.0752 9.13125 24.1502C9.1625 24.1814 9.525 24.1377 10.0125 24.0439C11.6625 23.7252 13.5563 23.5002 14.6688 23.5002C14.9813 23.5002 15.2812 23.4814 15.3375 23.4627C15.425 23.4252 15.4375 23.0627 15.4375 19.9939V16.5627H11.7188H8V16.9189Z" fill="#27AAE2"/>
<path d="M16.5625 19.9939C16.5625 23.0627 16.575 23.4252 16.6625 23.4627C16.7188 23.4814 17.0188 23.5002 17.3313 23.5002C18.4438 23.5002 20.3375 23.7252 21.9875 24.0439C22.475 24.1377 22.8375 24.1814 22.8688 24.1502C22.9375 24.0752 23.3313 22.4814 23.4938 21.6127C23.7438 20.2939 24 17.9502 24 16.9189V16.5627H20.2812H16.5625V19.9939Z" fill="#27AAE2"/>
<path d="M25.1607 16.6375C25.142 16.6812 25.117 17.1312 25.0982 17.6312C25.017 19.6375 24.692 21.8063 24.1857 23.7437C24.0795 24.1375 24.0045 24.4688 24.017 24.475C24.0295 24.4875 24.4545 24.6313 24.9732 24.8C25.9795 25.1313 26.842 25.4812 27.6982 25.9125C27.9982 26.0625 28.2732 26.1875 28.2982 26.1875C28.3732 26.1875 29.1545 25.1437 29.5357 24.5312C30.942 22.2938 31.767 19.7562 31.967 17.075L32.0045 16.5625H28.592C25.917 16.5625 25.1795 16.5813 25.1607 16.6375Z" fill="#27AAE2"/>
<path d="M13.6202 24.6936C12.3515 24.7936 9.63899 25.2123 9.52649 25.3248C9.47649 25.3748 10.0515 26.7436 10.414 27.4561C11.664 29.8998 13.3327 31.5061 15.0452 31.8998L15.4327 31.9873V28.3061V24.6248L14.8577 24.6311C14.539 24.6373 13.9827 24.6623 13.6202 24.6936Z" fill="#27AAE2"/>
<path d="M16.5625 28.3061V31.9873L16.9563 31.8998C18.6625 31.5061 20.3312 29.8998 21.5813 27.4561C21.9437 26.7436 22.5188 25.3748 22.4688 25.3248C22.4125 25.2686 21.2938 25.0623 20.2188 24.9123C19.025 24.7436 17.6875 24.6248 16.9875 24.6248H16.5625V28.3061Z" fill="#27AAE2"/>
<path d="M7.34375 25.9C6.03125 26.3375 4.5 26.9938 4.5 27.1188C4.5 27.1875 5.33125 27.9688 5.93125 28.4563C7.04375 29.3688 8.66875 30.3188 10.0312 30.8625C10.625 31.1 11.8375 31.5 11.9562 31.5C11.9875 31.5 11.7875 31.2563 11.5062 30.9625C10.1875 29.5688 9.05625 27.6813 8.475 25.8875C8.4125 25.7125 8.3625 25.5625 8.35625 25.5688C8.35 25.5688 7.89375 25.7188 7.34375 25.9Z" fill="#27AAE2"/>
<path d="M23.5903 25.7002C23.2965 26.5377 23.184 26.819 22.934 27.3565C22.3153 28.6752 21.434 29.9815 20.5153 30.9377C20.2528 31.2127 20.0528 31.4502 20.0715 31.469C20.1153 31.5127 21.234 31.1565 21.9653 30.8627C23.2903 30.3377 24.909 29.394 26.0278 28.4877C26.659 27.9752 27.4965 27.194 27.4965 27.119C27.4965 26.994 25.6778 26.2252 24.5028 25.8502C23.7153 25.6002 23.6278 25.5877 23.5903 25.7002Z" fill="#27AAE2"/>
</g>
<defs>
<clipPath id="clip0_187_4736">
<rect width="32" height="32" fill="white"/>
</clipPath>
</defs>
</svg>
