<svg width="32" height="32" viewBox="0 0 32 32" fill="none" xmlns="http://www.w3.org/2000/svg">
<path d="M26.8975 19.99C25.7776 18.8283 24.3217 18.8283 23.1552 19.99C22.2779 20.8636 21.41 21.7279 20.5327 22.6014C20.2901 22.8431 20.0941 22.8895 19.8048 22.7501C19.2728 22.4156 18.6382 22.174 18.1063 21.8301C15.5772 20.2316 13.4401 18.1964 11.5456 15.8823C10.6216 14.7207 9.80039 13.5125 9.21245 12.1092C9.11912 11.8212 9.11912 11.6725 9.36177 11.4308C10.2857 10.6037 11.1069 9.73944 11.9842 8.86586C13.1974 7.65773 13.1974 6.25443 11.9842 5.04629C11.2563 4.32141 10.575 3.643 9.89372 2.96458C9.16579 2.2397 8.48452 1.51482 7.75658 0.836402C6.63669 -0.278801 5.18082 -0.278801 4.01426 0.836402C3.13701 1.70998 2.26909 2.57426 1.39184 3.44784C0.561251 4.27494 0.131957 5.24145 0.0293002 6.34736C-0.120019 8.14098 0.318607 9.87884 0.953214 11.5702C2.26909 15.1017 4.25691 18.1499 6.63669 21.003C9.89372 24.8783 13.776 27.9265 18.3023 30.1012C20.3461 31.0677 22.4366 31.839 24.667 31.9877C26.2722 32.0807 27.6347 31.6532 28.7453 30.4357C29.4732 29.5622 30.3505 28.8373 31.1251 28.0195C32.2916 26.8113 32.2916 25.3616 31.1251 24.1999C29.7159 22.7966 28.3067 21.3933 26.8975 19.99Z" fill="#27AAE2"/>
</svg>
