<svg xmlns="http://www.w3.org/2000/svg" xmlns:xlink="http://www.w3.org/1999/xlink"><defs><style>
    .sprite-symbol-usage {display: none;}
    .sprite-symbol-usage:target {display: inline;}
  </style><symbol viewBox="0 0 27 27" id="icon-ball">
<path fill-rule="evenodd" clip-rule="evenodd" d="M2.04288 12.5H6.87594C6.79071 11.8808 6.62647 11.2737 6.38623 10.6937C6.01769 9.80393 5.47752 8.99551 4.79656 8.31455C4.46863 7.98662 4.11115 7.69135 3.72926 7.43217C2.79895 8.92702 2.20215 10.651 2.04288 12.5ZM4.93046 5.83087C5.38721 6.14767 5.81584 6.5054 6.21077 6.90034C7.07745 7.76702 7.76494 8.79592 8.23399 9.92829C8.57495 10.7514 8.79562 11.6175 8.89072 12.5H10.0278C10.5801 12.5 11.0278 12.9477 11.0278 13.5C11.0278 14.0523 10.5801 14.5 10.0278 14.5H8.89072C8.79562 15.3825 8.57495 16.2486 8.23399 17.0717C7.76494 18.2041 7.07745 19.233 6.21077 20.0997C5.81584 20.4946 5.38721 20.8523 4.93046 21.1691C7.03612 23.5204 10.0953 25 13.5 25C16.9047 25 19.9639 23.5204 22.0695 21.1691C21.6128 20.8523 21.1841 20.4946 20.7892 20.0997C19.9225 19.233 19.235 18.2041 18.766 17.0717C18.425 16.2486 18.2043 15.3825 18.1092 14.5H14.5V21.8333C14.5 22.3856 14.0523 22.8333 13.5 22.8333C12.9477 22.8333 12.5 22.3856 12.5 21.8333V2.04288C9.49918 2.30136 6.82776 3.71226 4.93046 5.83087ZM14.5 2.04288V12.5H18.1092C18.2043 11.6176 18.425 10.7514 18.766 9.92829C19.235 8.79592 19.9225 7.76702 20.7892 6.90034C21.1841 6.5054 21.6128 6.14767 22.0695 5.83086C20.1722 3.71226 17.5008 2.30136 14.5 2.04288ZM23.2707 7.43215C22.8888 7.69134 22.5313 7.98662 22.2034 8.31456C21.5224 8.99552 20.9823 9.80394 20.6137 10.6937C20.3735 11.2737 20.2093 11.8808 20.124 12.5H24.9571C24.7979 10.651 24.201 8.92701 23.2707 7.43215ZM24.9571 14.5H20.124C20.2093 15.1192 20.3735 15.7264 20.6137 16.3064C20.9823 17.1961 21.5224 18.0045 22.2034 18.6855C22.5313 19.0134 22.8888 19.3087 23.2707 19.5679C24.201 18.073 24.7979 16.349 24.9571 14.5ZM3.72926 19.5678C4.11115 19.3087 4.46863 19.0134 4.79656 18.6854C5.47752 18.0045 6.01769 17.1961 6.38623 16.3063C6.62647 15.7263 6.79071 15.1192 6.87594 14.5H2.04288C2.20215 16.349 2.79895 18.073 3.72926 19.5678ZM0 13.5C0 6.04416 6.04416 0 13.5 0C20.9558 0 27 6.04416 27 13.5C27 20.9558 20.9558 27 13.5 27C6.04416 27 0 20.9558 0 13.5Z" />
</symbol></defs><use id="icon-ball-usage" xlink:href="#icon-ball" class="sprite-symbol-usage" /></svg>