<svg xmlns="http://www.w3.org/2000/svg" xmlns:xlink="http://www.w3.org/1999/xlink"><defs><style>
    .sprite-symbol-usage {display: none;}
    .sprite-symbol-usage:target {display: inline;}
  </style><symbol viewBox="0 0 24 22" fill="none" id="icon-cart">
<path fill-rule="evenodd" clip-rule="evenodd" d="M0.0167503 0.686743C0.109257 0.224209 0.559206 -0.0757564 1.02174 0.0167503L2.21672 0.255746C3.56644 0.525691 4.58167 1.64532 4.71863 3.01494L4.81572 3.98585H20.275C22.5346 3.98585 24.1926 6.10936 23.6446 8.30148L22.366 13.4157C21.8765 15.3737 20.2331 16.8006 18.2705 17.0446C18.2539 17.0435 18.2372 17.043 18.2203 17.043H12.5265C12.4431 17.043 12.3629 17.0566 12.288 17.0817H7.42989C5.84466 17.0817 4.50945 15.8971 4.32058 14.3232L3.19379 4.93331L3.01895 3.18491C2.9567 2.56235 2.49523 2.05343 1.88172 1.93073L0.686743 1.69173C0.224209 1.59923 -0.0757564 1.14928 0.0167503 0.686743Z" fill="#27AAE2" />
<circle cx="8.256" cy="20.213" r="1.70815" fill="#27AAE2" />
<circle cx="18.505" cy="20.213" r="1.70815" fill="#27AAE2" />
</symbol><symbol viewBox="0 0 20 20" fill="none" id="icon-checkbox">
  <rect x="0.5" y="0.5" width="19" height="19" rx="5" fill="none" stroke="#bbbbbb" stroke-width="1" />
  <path x="0.5" y="0.5" d="M13.8574 7.82946L13.1525 7.13953C13.0574 7.04651 12.9386 7 12.804 7C12.6693 7 12.5505 7.04651 12.4554 7.13953L9.06535 10.4574L7.55248 8.96899C7.45743 8.87597 7.33861 8.82946 7.20396 8.82946C7.06931 8.82946 6.9505 8.87597 6.85545 8.96899L6.1505 9.65891C6.04752 9.75194 6 9.86822 6 10C6 10.1318 6.04752 10.2481 6.14257 10.3411L8.01188 12.1705L8.71683 12.8605C8.81188 12.9535 8.93069 13 9.06535 13C9.2 13 9.31881 12.9535 9.41386 12.8605L10.1188 12.1705L13.8574 8.51163C13.9525 8.4186 14 8.30233 14 8.17054C14 8.03876 13.9525 7.92248 13.8574 7.82946Z" fill="#bbbbbb" />
</symbol><symbol viewBox="0 0 20 20" fill="none" id="icon-checkbox-checked">
<rect width="20" height="20" rx="5" fill="#27AAE2" />
<path d="M13.8574 7.82946L13.1525 7.13953C13.0574 7.04651 12.9386 7 12.804 7C12.6693 7 12.5505 7.04651 12.4554 7.13953L9.06535 10.4574L7.55248 8.96899C7.45743 8.87597 7.33861 8.82946 7.20396 8.82946C7.06931 8.82946 6.9505 8.87597 6.85545 8.96899L6.1505 9.65891C6.04752 9.75194 6 9.86822 6 10C6 10.1318 6.04752 10.2481 6.14257 10.3411L8.01188 12.1705L8.71683 12.8605C8.81188 12.9535 8.93069 13 9.06535 13C9.2 13 9.31881 12.9535 9.41386 12.8605L10.1188 12.1705L13.8574 8.51163C13.9525 8.4186 14 8.30233 14 8.17054C14 8.03876 13.9525 7.92248 13.8574 7.82946Z" fill="white" />
</symbol><symbol viewBox="0 0 10 16" id="icon-chevrone">
<path fill-rule="evenodd" clip-rule="evenodd" d="M1.02118 7.84941L8.75765 5.4305e-08L9.94353 1.18588L3.33647 7.90588L10 14.6259L8.81412 15.8118L0.964706 7.90588L1.02118 7.84941Z" fill="currentColor" />
</symbol><symbol viewBox="0 0 24 25" fill="none" id="icon-coins">
<path d="M5 5.56048C5 5.5148 5.02346 5.35193 5.33434 5.08943C5.64112 4.83039 6.13741 4.55732 6.82795 4.3107C8.20135 3.8202 10.1567 3.5 12.3589 3.5C14.561 3.5 16.5164 3.8202 17.8898 4.3107C18.5803 4.55732 19.0766 4.83039 19.3834 5.08943C19.6943 5.35193 19.7177 5.5148 19.7177 5.56048C19.7177 5.60616 19.6943 5.76904 19.3834 6.03154C19.0766 6.29058 18.5803 6.56365 17.8898 6.81027C16.5164 7.30077 14.561 7.62097 12.3589 7.62097C10.1567 7.62097 8.20135 7.30077 6.82795 6.81027C6.13741 6.56365 5.64112 6.29058 5.33434 6.03154C5.02346 5.76904 5 5.60616 5 5.56048Z" fill="#27AAE2" />
<path d="M18.4838 8.47351C18.7919 8.36348 19.0866 8.24233 19.3627 8.10956C19.5244 8.03181 19.7177 8.14661 19.7177 8.32601V10.2702C19.7177 10.3158 19.6943 10.4787 19.3834 10.7412C19.0766 11.0003 18.5803 11.2733 17.8898 11.5199C16.5164 12.0104 14.561 12.3306 12.3589 12.3306C10.1567 12.3306 8.20135 12.0104 6.82795 11.5199C6.13741 11.2733 5.64112 11.0003 5.33434 10.7412C5.02346 10.4787 5 10.3158 5 10.2702V8.32601C5 8.14661 5.19338 8.03181 5.35507 8.10956C5.63114 8.24233 5.92586 8.36348 6.23394 8.47351C7.84353 9.04836 10.0091 9.3871 12.3589 9.3871C14.7086 9.3871 16.8742 9.04836 18.4838 8.47351Z" fill="#27AAE2" />
<path d="M18.4838 13.1832C18.7919 13.0732 19.0866 12.952 19.3627 12.8192C19.5244 12.7415 19.7177 12.8563 19.7177 13.0357V14.9798C19.7177 15.0255 19.6943 15.1884 19.3834 15.4509C19.0766 15.7099 18.5803 15.983 17.8898 16.2296C16.5164 16.7201 14.561 17.0403 12.3589 17.0403C10.1567 17.0403 8.20135 16.7201 6.82795 16.2296C6.13741 15.983 5.64112 15.7099 5.33434 15.4509C5.02346 15.1884 5 15.0255 5 14.9798V13.0357C5 12.8563 5.19339 12.7415 5.35507 12.8192C5.63114 12.952 5.92586 13.0732 6.23394 13.1832C7.84353 13.758 10.0091 14.0968 12.3589 14.0968C14.7086 14.0968 16.8742 13.758 18.4838 13.1832Z" fill="#27AAE2" />
<path d="M18.4838 17.8929C18.7919 17.7828 19.0866 17.6617 19.3627 17.5289C19.5244 17.4512 19.7177 17.566 19.7177 17.7454V19.6895C19.7177 19.7352 19.6943 19.8981 19.3834 20.1606C19.0766 20.4196 18.5803 20.6927 17.8898 20.9393C16.5164 21.4298 14.561 21.75 12.3589 21.75C10.1567 21.75 8.20135 21.4298 6.82795 20.9393C6.13741 20.6927 5.64112 20.4196 5.33434 20.1606C5.02346 19.8981 5 19.7352 5 19.6895V17.7454C5 17.566 5.19339 17.4512 5.35507 17.5289C5.63114 17.6617 5.92586 17.7828 6.23394 17.8929C7.84353 18.4677 10.0091 18.8065 12.3589 18.8065C14.7086 18.8065 16.8742 18.4677 18.4838 17.8929Z" fill="#27AAE2" />
</symbol><symbol viewBox="0 0 24 25" fill="none" id="icon-document">
<path fill-rule="evenodd" clip-rule="evenodd" d="M14.25 1.75634C14.1881 1.75213 14.1258 1.75 14.0633 1.75H8C5.37665 1.75 3.25 3.87665 3.25 6.5V18.5C3.25 21.1234 5.37665 23.25 8 23.25H16C18.6234 23.25 20.75 21.1234 20.75 18.5V9.25H17C15.4812 9.25 14.25 8.01878 14.25 6.5V1.75634ZM7.25 12.5C7.25 12.0858 7.58579 11.75 8 11.75H16C16.4142 11.75 16.75 12.0858 16.75 12.5C16.75 12.9142 16.4142 13.25 16 13.25H8C7.58579 13.25 7.25 12.9142 7.25 12.5ZM8 16.75C7.58579 16.75 7.25 17.0858 7.25 17.5C7.25 17.9142 7.58579 18.25 8 18.25H12C12.4142 18.25 12.75 17.9142 12.75 17.5C12.75 17.0858 12.4142 16.75 12 16.75H8Z" fill="#27AAE2" />
<path d="M20.3215 7.75C20.2584 7.65059 20.1887 7.5549 20.1126 7.46359L16.1759 2.73949C16.048 2.58601 15.905 2.44837 15.75 2.32802V6.5C15.75 7.19036 16.3096 7.75 17 7.75H20.3215Z" fill="#27AAE2" />
</symbol><symbol viewBox="0 0 32 23" fill="none" id="icon-email">
<path d="M31.7181 1.85628L22.013 11.4989L31.7181 21.1416C31.8936 20.7749 32 20.3695 32 19.9366V3.06125C32 2.6283 31.8936 2.22298 31.7181 1.85628Z" fill="#27AAE2" />
<path d="M29.1884 0.25H2.81281C2.37986 0.25 1.97454 0.35644 1.60785 0.531881L14.0121 12.8736C15.1088 13.9704 16.8924 13.9704 17.9891 12.8736L30.3933 0.531881C30.0266 0.35644 29.6213 0.25 29.1884 0.25Z" fill="#27AAE2" />
<path d="M0.281881 1.85628C0.10644 2.22298 0 2.6283 0 3.06125V19.9366C0 20.3696 0.10644 20.7749 0.281881 21.1416L9.98703 11.4989L0.281881 1.85628Z" fill="#27AAE2" />
<path d="M20.6882 12.8253L19.3149 14.1986C17.4874 16.0261 14.5137 16.0261 12.6863 14.1986L11.313 12.8253L1.60785 22.4679C1.97454 22.6434 2.37986 22.7498 2.81281 22.7498H29.1884C29.6213 22.7498 30.0266 22.6434 30.3933 22.4679L20.6882 12.8253Z" fill="#27AAE2" />
</symbol><symbol viewBox="0 0 18 33" fill="none" id="icon-fb">
<path d="M16.7779 18.5551L17.6667 12.9996H12.3334V9.11068C12.3334 7.55512 12.889 6.3329 15.3334 6.3329H17.889V1.22179C16.4445 0.999566 14.889 0.777344 13.4445 0.777344C8.88897 0.777344 5.66675 3.55512 5.66675 8.55512V12.9996H0.666748V18.5551H5.66675V32.9996C7.88897 32.9996 10.1112 32.9996 12.3334 32.9996V18.5551H16.7779Z" fill="white" />
</symbol><symbol viewBox="0 0 24 24" fill="none" id="icon-filter">
<path d="M21 7L11 7" stroke="#27AAE2" stroke-width="2" stroke-linecap="round" stroke-linejoin="round" />
<circle cx="2" cy="2" r="2" transform="matrix(-1 0 0 1 7 5)" stroke="#27AAE2" stroke-width="2" />
<path d="M3 17L13 17" stroke="#27AAE2" stroke-width="2" stroke-linecap="round" stroke-linejoin="round" />
<circle cx="19" cy="17" r="2" stroke="#27AAE2" stroke-width="2" />
</symbol><symbol viewBox="0 0 32 32" fill="none" id="icon-globe">
<g clip-path="url(#icon-globe_clip0_187_4736)">
<path d="M14.8401 0.181055C13.4838 0.568555 12.0901 1.78105 11.0151 3.50605C10.6588 4.0748 10.0463 5.3123 9.74006 6.06855C9.60256 6.41855 9.49631 6.70605 9.50881 6.71855C9.52131 6.7248 9.84006 6.79355 10.2151 6.8623C11.6401 7.14355 13.2151 7.3248 14.8276 7.3998L15.4338 7.4248V3.74355C15.4338 0.274805 15.4276 0.062305 15.3276 0.0685554C15.2651 0.0685554 15.0463 0.118555 14.8401 0.181055Z" fill="#27AAE2" />
<path d="M16.5625 3.74355V7.4248L17.175 7.3998C18.7812 7.3248 20.3563 7.14355 21.7812 6.8623C22.1625 6.79355 22.475 6.7248 22.4875 6.71855C22.525 6.6873 21.975 5.3873 21.6188 4.6748C20.5625 2.5748 19.3563 1.20605 17.9062 0.481054C17.525 0.287304 16.8313 0.062304 16.6313 0.062304C16.5813 0.062304 16.5625 1.0998 16.5625 3.74355Z" fill="#27AAE2" />
<path d="M11.358 0.693496C9.62054 1.2185 7.82679 2.131 6.35179 3.23725C5.71429 3.72475 4.53929 4.781 4.50804 4.89975C4.50179 4.93725 4.62679 5.031 4.78929 5.106C4.95179 5.181 5.35804 5.356 5.68304 5.49975C6.48929 5.856 8.28929 6.481 8.34554 6.4185C8.35179 6.41225 8.46429 6.12475 8.58929 5.781C9.23929 4.03725 10.2393 2.41225 11.4955 1.04975C11.7768 0.749746 11.9955 0.499746 11.983 0.505996C11.9705 0.505996 11.6893 0.587246 11.358 0.693496Z" fill="#27AAE2" />
<path d="M20.4422 0.987532C20.9922 1.58128 21.8984 2.77503 22.2547 3.38128C22.6109 4.00003 23.2547 5.35628 23.4672 5.95003C23.6672 6.51878 23.5234 6.50628 24.8109 6.08128C25.6797 5.78753 27.4984 5.01878 27.4984 4.93753C27.4984 4.84378 26.2484 3.70003 25.6672 3.26253C24.1234 2.10003 22.1734 1.11878 20.4484 0.637532L19.9922 0.506282L20.4422 0.987532Z" fill="#27AAE2" />
<path d="M3.18125 6.45C2.3125 7.63125 1.76875 8.59375 1.2 9.9375C0.58125 11.4125 0.1625 13.2 0.0375 14.9187L0 15.4375H3.4375H6.875V14.9187C6.875 13.2062 7.2375 10.5812 7.75625 8.50625C7.8875 7.975 7.99375 7.5375 7.98125 7.53125C7.975 7.525 7.63125 7.4125 7.21875 7.28125C6.225 6.975 5.51875 6.69375 4.50625 6.2125C4.04375 5.99375 3.66875 5.8125 3.6625 5.8125C3.65625 5.8125 3.4375 6.1 3.18125 6.45Z" fill="#27AAE2" />
<path d="M27.9041 6.0125C27.1479 6.4125 26.0041 6.88125 25.0291 7.2C24.4791 7.375 24.0229 7.525 24.0166 7.53125C24.0041 7.5375 24.1104 7.975 24.2416 8.50625C24.7604 10.5812 25.1229 13.2062 25.1229 14.9187V15.4375H28.5604H31.9979L31.9604 14.9187C31.7291 11.7938 30.6916 9 28.8166 6.45C28.5604 6.1 28.3291 5.8125 28.3104 5.8125C28.2916 5.81875 28.1104 5.90625 27.9041 6.0125Z" fill="#27AAE2" />
<path d="M9.03281 8.14375C8.52656 9.8875 8.12656 12.425 8.02031 14.5125L7.97656 15.4375H11.7078H15.4328V12.0062V8.575L14.6391 8.5375C12.8828 8.44375 11.3891 8.2625 9.90781 7.9625C9.50156 7.88125 9.15781 7.8125 9.14531 7.8125C9.13906 7.8125 9.08281 7.9625 9.03281 8.14375Z" fill="#27AAE2" />
<path d="M22.3438 7.9125C21.025 8.20625 19.1125 8.45 17.3938 8.5375L16.5625 8.575V12.0063V15.4375H20.2875H24.0188L23.975 14.5125C23.8875 12.775 23.6063 10.7625 23.2125 9.13125C22.975 8.1375 22.875 7.8125 22.7938 7.81875C22.75 7.825 22.55 7.8625 22.3438 7.9125Z" fill="#27AAE2" />
<path d="M0.0296875 17.075C0.229687 19.7562 1.05469 22.2938 2.46094 24.5312C2.84219 25.1437 3.62344 26.1875 3.69844 26.1875C3.72344 26.1875 3.99844 26.0625 4.29844 25.9125C5.15469 25.4812 6.01719 25.1313 7.02344 24.8C7.54219 24.6313 7.96719 24.4875 7.97969 24.475C7.99219 24.4688 7.91719 24.1375 7.81094 23.7437C7.30469 21.8 6.98594 19.7 6.88594 17.5312L6.84219 16.5938L3.41719 16.575L-0.0078125 16.5625L0.0296875 17.075Z" fill="#27AAE2" />
<path d="M8 16.9189C8 17.9502 8.25625 20.2939 8.50625 21.6127C8.66875 22.4814 9.0625 24.0752 9.13125 24.1502C9.1625 24.1814 9.525 24.1377 10.0125 24.0439C11.6625 23.7252 13.5563 23.5002 14.6688 23.5002C14.9813 23.5002 15.2812 23.4814 15.3375 23.4627C15.425 23.4252 15.4375 23.0627 15.4375 19.9939V16.5627H11.7188H8V16.9189Z" fill="#27AAE2" />
<path d="M16.5625 19.9939C16.5625 23.0627 16.575 23.4252 16.6625 23.4627C16.7188 23.4814 17.0188 23.5002 17.3313 23.5002C18.4438 23.5002 20.3375 23.7252 21.9875 24.0439C22.475 24.1377 22.8375 24.1814 22.8688 24.1502C22.9375 24.0752 23.3313 22.4814 23.4938 21.6127C23.7438 20.2939 24 17.9502 24 16.9189V16.5627H20.2812H16.5625V19.9939Z" fill="#27AAE2" />
<path d="M25.1607 16.6375C25.142 16.6812 25.117 17.1312 25.0982 17.6312C25.017 19.6375 24.692 21.8063 24.1857 23.7437C24.0795 24.1375 24.0045 24.4688 24.017 24.475C24.0295 24.4875 24.4545 24.6313 24.9732 24.8C25.9795 25.1313 26.842 25.4812 27.6982 25.9125C27.9982 26.0625 28.2732 26.1875 28.2982 26.1875C28.3732 26.1875 29.1545 25.1437 29.5357 24.5312C30.942 22.2938 31.767 19.7562 31.967 17.075L32.0045 16.5625H28.592C25.917 16.5625 25.1795 16.5813 25.1607 16.6375Z" fill="#27AAE2" />
<path d="M13.6202 24.6936C12.3515 24.7936 9.63899 25.2123 9.52649 25.3248C9.47649 25.3748 10.0515 26.7436 10.414 27.4561C11.664 29.8998 13.3327 31.5061 15.0452 31.8998L15.4327 31.9873V28.3061V24.6248L14.8577 24.6311C14.539 24.6373 13.9827 24.6623 13.6202 24.6936Z" fill="#27AAE2" />
<path d="M16.5625 28.3061V31.9873L16.9563 31.8998C18.6625 31.5061 20.3312 29.8998 21.5813 27.4561C21.9437 26.7436 22.5188 25.3748 22.4688 25.3248C22.4125 25.2686 21.2938 25.0623 20.2188 24.9123C19.025 24.7436 17.6875 24.6248 16.9875 24.6248H16.5625V28.3061Z" fill="#27AAE2" />
<path d="M7.34375 25.9C6.03125 26.3375 4.5 26.9938 4.5 27.1188C4.5 27.1875 5.33125 27.9688 5.93125 28.4563C7.04375 29.3688 8.66875 30.3188 10.0312 30.8625C10.625 31.1 11.8375 31.5 11.9562 31.5C11.9875 31.5 11.7875 31.2563 11.5062 30.9625C10.1875 29.5688 9.05625 27.6813 8.475 25.8875C8.4125 25.7125 8.3625 25.5625 8.35625 25.5688C8.35 25.5688 7.89375 25.7188 7.34375 25.9Z" fill="#27AAE2" />
<path d="M23.5903 25.7002C23.2965 26.5377 23.184 26.819 22.934 27.3565C22.3153 28.6752 21.434 29.9815 20.5153 30.9377C20.2528 31.2127 20.0528 31.4502 20.0715 31.469C20.1153 31.5127 21.234 31.1565 21.9653 30.8627C23.2903 30.3377 24.909 29.394 26.0278 28.4877C26.659 27.9752 27.4965 27.194 27.4965 27.119C27.4965 26.994 25.6778 26.2252 24.5028 25.8502C23.7153 25.6002 23.6278 25.5877 23.5903 25.7002Z" fill="#27AAE2" />
</g>
<defs>

</defs>
</symbol><clipPath id="icon-globe_clip0_187_4736">
<rect width="32" height="32" fill="white" />
</clipPath><symbol viewBox="0 0 30 30" fill="none" id="icon-ig">
<path d="M15.0006 0.454102C11.0504 0.454102 10.5546 0.471375 9.00318 0.541981C7.45474 0.61289 6.3978 0.858041 5.47298 1.21774C4.51634 1.58925 3.70485 2.08622 2.89639 2.89501C2.08733 3.7035 1.59037 4.51501 1.21766 5.47137C0.85706 6.39653 0.611614 7.4538 0.541919 9.00168C0.472527 10.5532 0.454346 11.0493 0.454346 14.9996C0.454346 18.9499 0.471921 19.4441 0.542222 20.9956C0.613432 22.5441 0.858576 23.6011 1.21796 24.5259C1.58977 25.4826 2.08672 26.2941 2.89548 27.1026C3.70364 27.9117 4.51513 28.4099 5.47116 28.7814C6.39659 29.1411 7.45383 29.3862 9.00197 29.4571C10.5534 29.5277 11.0489 29.545 14.9988 29.545C18.9492 29.545 19.4435 29.5277 20.9949 29.4571C22.5434 29.3862 23.6015 29.1411 24.527 28.7814C25.4833 28.4099 26.2936 27.9117 27.1017 27.1026C27.9108 26.2941 28.4077 25.4826 28.7805 24.5262C29.138 23.6011 29.3835 22.5438 29.4562 20.9959C29.5259 19.4444 29.5441 18.9499 29.5441 14.9996C29.5441 11.0493 29.5259 10.5535 29.4562 9.00198C29.3835 7.4535 29.138 6.39652 28.7805 5.47168C28.4077 4.51501 27.9108 3.7035 27.1017 2.89501C26.2927 2.08592 25.4836 1.58895 24.526 1.21774C23.5988 0.858041 22.5413 0.61289 20.9928 0.541981C19.4413 0.471375 18.9474 0.454102 14.996 0.454102H15.0006ZM13.6958 3.07531C14.083 3.07471 14.5151 3.07531 15.0006 3.07531C18.8841 3.07531 19.3444 3.08925 20.878 3.15895C22.2961 3.2238 23.0658 3.46077 23.5785 3.65986C24.2573 3.9235 24.7412 4.23865 25.25 4.74774C25.759 5.25683 26.0742 5.74168 26.3384 6.42046C26.5375 6.93259 26.7748 7.70228 26.8393 9.12046C26.909 10.6538 26.9242 11.1144 26.9242 14.9962C26.9242 18.878 26.909 19.3386 26.8393 20.872C26.7745 22.2902 26.5375 23.0599 26.3384 23.572C26.0748 24.2508 25.759 24.7341 25.25 25.2429C24.7409 25.752 24.2576 26.0671 23.5785 26.3308C23.0664 26.5308 22.2961 26.7671 20.878 26.832C19.3447 26.9017 18.8841 26.9168 15.0006 26.9168C11.1167 26.9168 10.6565 26.9017 9.12317 26.832C7.70504 26.7665 6.93536 26.5296 6.42235 26.3305C5.74358 26.0668 5.25875 25.7517 4.74967 25.2426C4.24059 24.7335 3.92545 24.2499 3.66122 23.5708C3.46213 23.0586 3.22487 22.2889 3.16032 20.8708C3.09063 19.3374 3.07669 18.8768 3.07669 14.9926C3.07669 11.1083 3.09063 10.6502 3.16032 9.11683C3.22517 7.69865 3.46213 6.92895 3.66122 6.41622C3.92485 5.73743 4.24059 5.25259 4.74967 4.74349C5.25875 4.2344 5.74358 3.91925 6.42235 3.65501C6.93506 3.45501 7.70504 3.21865 9.12317 3.1535C10.465 3.09289 10.9849 3.07471 13.6958 3.07168V3.07531ZM22.7646 5.49046C21.801 5.49046 21.0192 6.27137 21.0192 7.23531C21.0192 8.19895 21.801 8.98077 22.7646 8.98077C23.7282 8.98077 24.51 8.19895 24.51 7.23531C24.51 6.27168 23.7282 5.48986 22.7646 5.48986V5.49046ZM15.0006 7.52986C10.8755 7.52986 7.5311 10.8744 7.5311 14.9996C7.5311 19.1247 10.8755 22.4677 15.0006 22.4677C19.1256 22.4677 22.4688 19.1247 22.4688 14.9996C22.4688 10.8744 19.1253 7.52986 15.0003 7.52986H15.0006ZM15.0006 10.1511C17.6781 10.1511 19.8489 12.3217 19.8489 14.9996C19.8489 17.6771 17.6781 19.848 15.0006 19.848C12.3228 19.848 10.1522 17.6771 10.1522 14.9996C10.1522 12.3217 12.3228 10.1511 15.0006 10.1511Z" fill="white" />
</symbol><symbol viewBox="0 0 24 25" fill="none" id="icon-location">
<path fill-rule="evenodd" clip-rule="evenodd" d="M3.25 10.9167C3.25 6.12281 7.17493 2.25 12 2.25C16.8251 2.25 20.75 6.12281 20.75 10.9167C20.75 13.8982 19.0113 16.8409 17.1686 18.9829C16.236 20.0669 15.2463 20.982 14.3733 21.6328C13.9374 21.9577 13.5186 22.2258 13.1405 22.4162C12.786 22.5947 12.3812 22.75 12 22.75C11.6188 22.75 11.214 22.5947 10.8595 22.4162C10.4814 22.2258 10.0626 21.9577 9.62674 21.6328C8.75371 20.982 7.76395 20.0669 6.83144 18.9829C4.98872 16.8409 3.25 13.8982 3.25 10.9167ZM12 13.5C10.3431 13.5 9 12.1569 9 10.5C9 8.84315 10.3431 7.5 12 7.5C13.6569 7.5 15 8.84315 15 10.5C15 12.1569 13.6569 13.5 12 13.5Z" fill="#27AAE2" />
</symbol><symbol viewBox="0 0 18 22" fill="none" id="icon-person">
<circle cx="4.57143" cy="4.57143" r="4.57143" transform="matrix(-1 0 0 1 13.5713 1)" fill="#27AAE2" stroke="#27AAE2" stroke-width="1.5" />
<path d="M1 16.9255C1 15.9422 1.61812 15.0651 2.5441 14.7344C6.71891 13.2434 11.2811 13.2434 15.4559 14.7344C16.3819 15.0651 17 15.9422 17 16.9255V18.6941C17 19.9112 15.922 20.8461 14.7172 20.674L12.8184 20.4028C10.2856 20.0409 7.71435 20.0409 5.18162 20.4028L3.28284 20.674C2.07798 20.8461 1 19.9112 1 18.6941V16.9255Z" fill="#27AAE2" stroke="#27AAE2" stroke-width="1.5" />
</symbol><symbol viewBox="0 0 32 32" fill="none" id="icon-phone">
<path d="M26.8975 19.99C25.7776 18.8283 24.3217 18.8283 23.1552 19.99C22.2779 20.8636 21.41 21.7279 20.5327 22.6014C20.2901 22.8431 20.0941 22.8895 19.8048 22.7501C19.2728 22.4156 18.6382 22.174 18.1063 21.8301C15.5772 20.2316 13.4401 18.1964 11.5456 15.8823C10.6216 14.7207 9.80039 13.5125 9.21245 12.1092C9.11912 11.8212 9.11912 11.6725 9.36177 11.4308C10.2857 10.6037 11.1069 9.73944 11.9842 8.86586C13.1974 7.65773 13.1974 6.25443 11.9842 5.04629C11.2563 4.32141 10.575 3.643 9.89372 2.96458C9.16579 2.2397 8.48452 1.51482 7.75658 0.836402C6.63669 -0.278801 5.18082 -0.278801 4.01426 0.836402C3.13701 1.70998 2.26909 2.57426 1.39184 3.44784C0.561251 4.27494 0.131957 5.24145 0.0293002 6.34736C-0.120019 8.14098 0.318607 9.87884 0.953214 11.5702C2.26909 15.1017 4.25691 18.1499 6.63669 21.003C9.89372 24.8783 13.776 27.9265 18.3023 30.1012C20.3461 31.0677 22.4366 31.839 24.667 31.9877C26.2722 32.0807 27.6347 31.6532 28.7453 30.4357C29.4732 29.5622 30.3505 28.8373 31.1251 28.0195C32.2916 26.8113 32.2916 25.3616 31.1251 24.1999C29.7159 22.7966 28.3067 21.3933 26.8975 19.99Z" fill="#27AAE2" />
</symbol><symbol viewBox="0 0 20 19" fill="none" id="icon-star">
<path d="M8.97183 0.708465C9.43822 -0.0665192 10.5618 -0.0665185 11.0282 0.708465L13.3586 4.58087C13.5262 4.85928 13.7995 5.05784 14.116 5.13116L18.5191 6.15091C19.4002 6.35499 19.7474 7.42356 19.1545 8.10661L16.1918 11.5196C15.9788 11.765 15.8744 12.0863 15.9025 12.41L16.2932 16.9127C16.3714 17.8138 15.4625 18.4742 14.6296 18.1214L10.4681 16.3583C10.1689 16.2316 9.83109 16.2316 9.53189 16.3583L5.37038 18.1214C4.53754 18.4742 3.62856 17.8138 3.70677 16.9127L4.09754 12.41C4.12563 12.0863 4.02124 11.765 3.80823 11.5196L0.845503 8.1066C0.252573 7.42356 0.599771 6.35499 1.48095 6.15091L5.88397 5.13116C6.20053 5.05784 6.47383 4.85928 6.64138 4.58087L8.97183 0.708465Z" fill="#27AAE2" />
</symbol><symbol viewBox="0 0 22 20" fill="none" id="icon-star-not-filled">
<path d="M9.97183 1.70846C10.4382 0.933481 11.5618 0.933482 12.0282 1.70847L14.3586 5.58087C14.5262 5.85928 14.7995 6.05784 15.116 6.13116L19.5191 7.15091C20.4002 7.35499 20.7474 8.42356 20.1545 9.10661L17.1918 12.5196C16.9788 12.765 16.8744 13.0863 16.9025 13.41L17.2932 17.9127C17.3714 18.8138 16.4625 19.4742 15.6296 19.1214L11.4681 17.3583C11.1689 17.2316 10.8311 17.2316 10.5319 17.3583L6.37038 19.1214C5.53754 19.4742 4.62856 18.8138 4.70677 17.9127L5.09754 13.41C5.12563 13.0863 5.02124 12.765 4.80823 12.5196L1.8455 9.1066C1.25257 8.42356 1.59977 7.35499 2.48095 7.15091L6.88397 6.13116C7.20053 6.05784 7.47383 5.85928 7.64138 5.58087L9.97183 1.70846Z" stroke="#27AAE2" stroke-width="1.5" />
</symbol><symbol viewBox="0 0 24 26" fill="none" id="icon-tt">
<path d="M8.55794 21.5458C10.7273 21.5458 12.4859 19.9927 12.4859 17.6178V0H17.1967C16.9325 3.213 20.1265 6.31667 23.649 6.24569V10.6754C20.6365 10.6754 18.0749 9.40162 17.1833 8.69471V17.6178C17.1833 21.5458 14.0932 26 8.55794 26C3.02266 26 0 21.5458 0 17.6178C0 12.0738 5.86696 8.85847 9.75277 9.64433V14.1562C9.55729 14.0871 9.05317 13.9849 8.62379 13.9849C6.4364 13.9042 4.62995 15.6783 4.62995 17.6178C4.62995 19.7871 6.38857 21.5458 8.55794 21.5458Z" fill="white" />
</symbol><symbol viewBox="0 0 24 24" fill="none" id="icon-upload">
<path d="M16.5 8.5L18.5 8.5C20.7091 8.5 22.5 10.2909 22.5 12.5L22.5 17.5C22.5 19.7091 20.7091 21.5 18.5 21.5L6.5 21.5C4.29086 21.5 2.5 19.7091 2.5 17.5L2.5 12.5C2.5 10.2909 4.29086 8.5 6.5 8.5L8.5 8.5" stroke="#27AAE2" stroke-width="2" stroke-linecap="round" />
<path d="M15.5 5.5L13.2071 3.20711C12.8166 2.81658 12.1834 2.81658 11.7929 3.20711L9.5 5.5" stroke="#27AAE2" stroke-width="2" stroke-linecap="round" />
<path d="M12.5 3.5L12.5 15.5" stroke="#27AAE2" stroke-width="2" stroke-linecap="round" />
</symbol><symbol viewBox="0 0 18 9" fill="none" id="icon-vector">
<path d="M16.2798 3.58789L0 3.58789L1.49163e-07 5.35744L16.2798 5.35744V3.58789Z" fill="#27AAE2" />
<path d="M13.1748 8.85435L11.9235 7.60308L15.0267 4.49993L11.9235 1.39678L13.1748 0.145508L17.5292 4.49993L13.1748 8.85435Z" fill="#27AAE2" />
</symbol><symbol viewBox="0 0 24 24" fill="none" id="icon-wa">
<path d="M12 0C5.37522 0 0 5.37522 0 12C0 14.6527 0.858639 17.096 2.31065 19.0855L0.78185 23.6091L5.54974 22.1222C7.41361 23.3089 9.62653 24 12 24C18.6248 24 24 18.6248 24 12C24 5.37522 18.6248 0 12 0ZM17.4939 18.4363C15.3159 19.3089 12.719 18.4642 9.87784 16.3072C7.03665 14.1501 5.16579 11.1134 5.04014 8.85864C4.91448 6.60384 6.75044 5.46597 7.74869 5.47295C8.74695 5.47993 9.84293 8.67016 9.85689 9.15881C9.87086 9.65445 8.63525 10.534 8.58639 10.9529C8.53752 11.3717 10.2688 13.438 11.0017 13.9965C11.7277 14.548 13.2286 15.6091 14.0035 15.5113C14.7714 15.4066 15.281 13.8639 15.7696 13.7661C16.2583 13.6684 18.925 14.9948 19.1902 15.3368C19.4555 15.6859 19.4276 17.6684 17.4939 18.4363Z" fill="white" />
</symbol><symbol viewBox="0 0 30 22" fill="none" id="icon-yt">
<path fill-rule="evenodd" clip-rule="evenodd" d="M26.7379 0.809494C28.0229 1.15546 29.0361 2.16863 29.3821 3.45363C30.0246 5.80124 29.9999 10.6941 29.9999 10.6941C29.9999 10.6941 29.9999 15.5623 29.3821 17.9099C29.0361 19.1949 28.0229 20.2081 26.7379 20.5541C24.3903 21.1718 14.9999 21.1718 14.9999 21.1718C14.9999 21.1718 5.63424 21.1718 3.26193 20.5293C1.97693 20.1834 0.963752 19.1702 0.61779 17.8852C0 15.5623 0 10.6694 0 10.6694C0 10.6694 0 5.80124 0.61779 3.45363C0.963752 2.16863 2.00164 1.13074 3.26193 0.784782C5.60953 0.166992 14.9999 0.166992 14.9999 0.166992C14.9999 0.166992 24.3903 0.166992 26.7379 0.809494ZM19.8187 10.4978L12.0098 14.9953V6.00033L19.8187 10.4978Z" fill="white" />
</symbol></defs><use id="icon-cart-usage" xlink:href="#icon-cart" class="sprite-symbol-usage" /><use id="icon-checkbox-usage" xlink:href="#icon-checkbox" class="sprite-symbol-usage" /><use id="icon-checkbox-checked-usage" xlink:href="#icon-checkbox-checked" class="sprite-symbol-usage" /><use id="icon-chevrone-usage" xlink:href="#icon-chevrone" class="sprite-symbol-usage" /><use id="icon-coins-usage" xlink:href="#icon-coins" class="sprite-symbol-usage" /><use id="icon-document-usage" xlink:href="#icon-document" class="sprite-symbol-usage" /><use id="icon-email-usage" xlink:href="#icon-email" class="sprite-symbol-usage" /><use id="icon-fb-usage" xlink:href="#icon-fb" class="sprite-symbol-usage" /><use id="icon-filter-usage" xlink:href="#icon-filter" class="sprite-symbol-usage" /><use id="icon-globe-usage" xlink:href="#icon-globe" class="sprite-symbol-usage" /><use id="icon-ig-usage" xlink:href="#icon-ig" class="sprite-symbol-usage" /><use id="icon-location-usage" xlink:href="#icon-location" class="sprite-symbol-usage" /><use id="icon-person-usage" xlink:href="#icon-person" class="sprite-symbol-usage" /><use id="icon-phone-usage" xlink:href="#icon-phone" class="sprite-symbol-usage" /><use id="icon-star-usage" xlink:href="#icon-star" class="sprite-symbol-usage" /><use id="icon-star-not-filled-usage" xlink:href="#icon-star-not-filled" class="sprite-symbol-usage" /><use id="icon-tt-usage" xlink:href="#icon-tt" class="sprite-symbol-usage" /><use id="icon-upload-usage" xlink:href="#icon-upload" class="sprite-symbol-usage" /><use id="icon-vector-usage" xlink:href="#icon-vector" class="sprite-symbol-usage" /><use id="icon-wa-usage" xlink:href="#icon-wa" class="sprite-symbol-usage" /><use id="icon-yt-usage" xlink:href="#icon-yt" class="sprite-symbol-usage" /></svg>