<svg xmlns="http://www.w3.org/2000/svg" xmlns:xlink="http://www.w3.org/1999/xlink"><defs><style>
    .sprite-symbol-usage {display: none;}
    .sprite-symbol-usage:target {display: inline;}
  </style><symbol viewBox="0 0 24 22" fill="none" id="icon-cart">
<path fill-rule="evenodd" clip-rule="evenodd" d="M0.0167503 0.686743C0.109257 0.224209 0.559206 -0.0757564 1.02174 0.0167503L2.21672 0.255746C3.56644 0.525691 4.58167 1.64532 4.71863 3.01494L4.81572 3.98585H20.275C22.5346 3.98585 24.1926 6.10936 23.6446 8.30148L22.366 13.4157C21.8765 15.3737 20.2331 16.8006 18.2705 17.0446C18.2539 17.0435 18.2372 17.043 18.2203 17.043H12.5265C12.4431 17.043 12.3629 17.0566 12.288 17.0817H7.42989C5.84466 17.0817 4.50945 15.8971 4.32058 14.3232L3.19379 4.93331L3.01895 3.18491C2.9567 2.56235 2.49523 2.05343 1.88172 1.93073L0.686743 1.69173C0.224209 1.59923 -0.0757564 1.14928 0.0167503 0.686743Z" fill="#27AAE2" />
<circle cx="8.256" cy="20.213" r="1.70815" fill="#27AAE2" />
<circle cx="18.505" cy="20.213" r="1.70815" fill="#27AAE2" />
</symbol><symbol viewBox="0 0 10 16" fill="none" id="icon-chevrone">
<path fill-rule="evenodd" clip-rule="evenodd" d="M1.02118 7.84941L8.75765 5.4305e-08L9.94353 1.18588L3.33647 7.90588L10 14.6259L8.81412 15.8118L0.964706 7.90588L1.02118 7.84941Z" fill="white" />
</symbol><symbol viewBox="0 0 32 23" fill="none" id="icon-email">
<path d="M31.7181 1.85628L22.013 11.4989L31.7181 21.1416C31.8936 20.7749 32 20.3695 32 19.9366V3.06125C32 2.6283 31.8936 2.22298 31.7181 1.85628Z" fill="#27AAE2" />
<path d="M29.1884 0.25H2.81281C2.37986 0.25 1.97454 0.35644 1.60785 0.531881L14.0121 12.8736C15.1088 13.9704 16.8924 13.9704 17.9891 12.8736L30.3933 0.531881C30.0266 0.35644 29.6213 0.25 29.1884 0.25Z" fill="#27AAE2" />
<path d="M0.281881 1.85628C0.10644 2.22298 0 2.6283 0 3.06125V19.9366C0 20.3696 0.10644 20.7749 0.281881 21.1416L9.98703 11.4989L0.281881 1.85628Z" fill="#27AAE2" />
<path d="M20.6882 12.8253L19.3149 14.1986C17.4874 16.0261 14.5137 16.0261 12.6863 14.1986L11.313 12.8253L1.60785 22.4679C1.97454 22.6434 2.37986 22.7498 2.81281 22.7498H29.1884C29.6213 22.7498 30.0266 22.6434 30.3933 22.4679L20.6882 12.8253Z" fill="#27AAE2" />
</symbol><symbol viewBox="0 0 18 33" fill="none" id="icon-fb">
<path d="M16.7779 18.5551L17.6667 12.9996H12.3334V9.11068C12.3334 7.55512 12.889 6.3329 15.3334 6.3329H17.889V1.22179C16.4445 0.999566 14.889 0.777344 13.4445 0.777344C8.88897 0.777344 5.66675 3.55512 5.66675 8.55512V12.9996H0.666748V18.5551H5.66675V32.9996C7.88897 32.9996 10.1112 32.9996 12.3334 32.9996V18.5551H16.7779Z" fill="white" />
</symbol><symbol viewBox="0 0 30 30" fill="none" id="icon-ig">
<path d="M15.0006 0.454102C11.0504 0.454102 10.5546 0.471375 9.00318 0.541981C7.45474 0.61289 6.3978 0.858041 5.47298 1.21774C4.51634 1.58925 3.70485 2.08622 2.89639 2.89501C2.08733 3.7035 1.59037 4.51501 1.21766 5.47137C0.85706 6.39653 0.611614 7.4538 0.541919 9.00168C0.472527 10.5532 0.454346 11.0493 0.454346 14.9996C0.454346 18.9499 0.471921 19.4441 0.542222 20.9956C0.613432 22.5441 0.858576 23.6011 1.21796 24.5259C1.58977 25.4826 2.08672 26.2941 2.89548 27.1026C3.70364 27.9117 4.51513 28.4099 5.47116 28.7814C6.39659 29.1411 7.45383 29.3862 9.00197 29.4571C10.5534 29.5277 11.0489 29.545 14.9988 29.545C18.9492 29.545 19.4435 29.5277 20.9949 29.4571C22.5434 29.3862 23.6015 29.1411 24.527 28.7814C25.4833 28.4099 26.2936 27.9117 27.1017 27.1026C27.9108 26.2941 28.4077 25.4826 28.7805 24.5262C29.138 23.6011 29.3835 22.5438 29.4562 20.9959C29.5259 19.4444 29.5441 18.9499 29.5441 14.9996C29.5441 11.0493 29.5259 10.5535 29.4562 9.00198C29.3835 7.4535 29.138 6.39652 28.7805 5.47168C28.4077 4.51501 27.9108 3.7035 27.1017 2.89501C26.2927 2.08592 25.4836 1.58895 24.526 1.21774C23.5988 0.858041 22.5413 0.61289 20.9928 0.541981C19.4413 0.471375 18.9474 0.454102 14.996 0.454102H15.0006ZM13.6958 3.07531C14.083 3.07471 14.5151 3.07531 15.0006 3.07531C18.8841 3.07531 19.3444 3.08925 20.878 3.15895C22.2961 3.2238 23.0658 3.46077 23.5785 3.65986C24.2573 3.9235 24.7412 4.23865 25.25 4.74774C25.759 5.25683 26.0742 5.74168 26.3384 6.42046C26.5375 6.93259 26.7748 7.70228 26.8393 9.12046C26.909 10.6538 26.9242 11.1144 26.9242 14.9962C26.9242 18.878 26.909 19.3386 26.8393 20.872C26.7745 22.2902 26.5375 23.0599 26.3384 23.572C26.0748 24.2508 25.759 24.7341 25.25 25.2429C24.7409 25.752 24.2576 26.0671 23.5785 26.3308C23.0664 26.5308 22.2961 26.7671 20.878 26.832C19.3447 26.9017 18.8841 26.9168 15.0006 26.9168C11.1167 26.9168 10.6565 26.9017 9.12317 26.832C7.70504 26.7665 6.93536 26.5296 6.42235 26.3305C5.74358 26.0668 5.25875 25.7517 4.74967 25.2426C4.24059 24.7335 3.92545 24.2499 3.66122 23.5708C3.46213 23.0586 3.22487 22.2889 3.16032 20.8708C3.09063 19.3374 3.07669 18.8768 3.07669 14.9926C3.07669 11.1083 3.09063 10.6502 3.16032 9.11683C3.22517 7.69865 3.46213 6.92895 3.66122 6.41622C3.92485 5.73743 4.24059 5.25259 4.74967 4.74349C5.25875 4.2344 5.74358 3.91925 6.42235 3.65501C6.93506 3.45501 7.70504 3.21865 9.12317 3.1535C10.465 3.09289 10.9849 3.07471 13.6958 3.07168V3.07531ZM22.7646 5.49046C21.801 5.49046 21.0192 6.27137 21.0192 7.23531C21.0192 8.19895 21.801 8.98077 22.7646 8.98077C23.7282 8.98077 24.51 8.19895 24.51 7.23531C24.51 6.27168 23.7282 5.48986 22.7646 5.48986V5.49046ZM15.0006 7.52986C10.8755 7.52986 7.5311 10.8744 7.5311 14.9996C7.5311 19.1247 10.8755 22.4677 15.0006 22.4677C19.1256 22.4677 22.4688 19.1247 22.4688 14.9996C22.4688 10.8744 19.1253 7.52986 15.0003 7.52986H15.0006ZM15.0006 10.1511C17.6781 10.1511 19.8489 12.3217 19.8489 14.9996C19.8489 17.6771 17.6781 19.848 15.0006 19.848C12.3228 19.848 10.1522 17.6771 10.1522 14.9996C10.1522 12.3217 12.3228 10.1511 15.0006 10.1511Z" fill="white" />
</symbol><symbol viewBox="0 0 18 22" fill="none" id="icon-person">
<circle cx="4.57143" cy="4.57143" r="4.57143" transform="matrix(-1 0 0 1 13.5713 1)" fill="#27AAE2" stroke="#27AAE2" stroke-width="1.5" />
<path d="M1 16.9255C1 15.9422 1.61812 15.0651 2.5441 14.7344C6.71891 13.2434 11.2811 13.2434 15.4559 14.7344C16.3819 15.0651 17 15.9422 17 16.9255V18.6941C17 19.9112 15.922 20.8461 14.7172 20.674L12.8184 20.4028C10.2856 20.0409 7.71435 20.0409 5.18162 20.4028L3.28284 20.674C2.07798 20.8461 1 19.9112 1 18.6941V16.9255Z" fill="#27AAE2" stroke="#27AAE2" stroke-width="1.5" />
</symbol><symbol viewBox="0 0 32 32" fill="none" id="icon-phone">
<path d="M26.8975 19.99C25.7776 18.8283 24.3217 18.8283 23.1552 19.99C22.2779 20.8636 21.41 21.7279 20.5327 22.6014C20.2901 22.8431 20.0941 22.8895 19.8048 22.7501C19.2728 22.4156 18.6382 22.174 18.1063 21.8301C15.5772 20.2316 13.4401 18.1964 11.5456 15.8823C10.6216 14.7207 9.80039 13.5125 9.21245 12.1092C9.11912 11.8212 9.11912 11.6725 9.36177 11.4308C10.2857 10.6037 11.1069 9.73944 11.9842 8.86586C13.1974 7.65773 13.1974 6.25443 11.9842 5.04629C11.2563 4.32141 10.575 3.643 9.89372 2.96458C9.16579 2.2397 8.48452 1.51482 7.75658 0.836402C6.63669 -0.278801 5.18082 -0.278801 4.01426 0.836402C3.13701 1.70998 2.26909 2.57426 1.39184 3.44784C0.561251 4.27494 0.131957 5.24145 0.0293002 6.34736C-0.120019 8.14098 0.318607 9.87884 0.953214 11.5702C2.26909 15.1017 4.25691 18.1499 6.63669 21.003C9.89372 24.8783 13.776 27.9265 18.3023 30.1012C20.3461 31.0677 22.4366 31.839 24.667 31.9877C26.2722 32.0807 27.6347 31.6532 28.7453 30.4357C29.4732 29.5622 30.3505 28.8373 31.1251 28.0195C32.2916 26.8113 32.2916 25.3616 31.1251 24.1999C29.7159 22.7966 28.3067 21.3933 26.8975 19.99Z" fill="#27AAE2" />
</symbol><symbol viewBox="0 0 20 19" fill="none" id="icon-star">
<path d="M8.97183 0.708465C9.43822 -0.0665192 10.5618 -0.0665185 11.0282 0.708465L13.3586 4.58087C13.5262 4.85928 13.7995 5.05784 14.116 5.13116L18.5191 6.15091C19.4002 6.35499 19.7474 7.42356 19.1545 8.10661L16.1918 11.5196C15.9788 11.765 15.8744 12.0863 15.9025 12.41L16.2932 16.9127C16.3714 17.8138 15.4625 18.4742 14.6296 18.1214L10.4681 16.3583C10.1689 16.2316 9.83109 16.2316 9.53189 16.3583L5.37038 18.1214C4.53754 18.4742 3.62856 17.8138 3.70677 16.9127L4.09754 12.41C4.12563 12.0863 4.02124 11.765 3.80823 11.5196L0.845503 8.1066C0.252573 7.42356 0.599771 6.35499 1.48095 6.15091L5.88397 5.13116C6.20053 5.05784 6.47383 4.85928 6.64138 4.58087L8.97183 0.708465Z" fill="#27AAE2" />
</symbol><symbol viewBox="0 0 24 26" fill="none" id="icon-tt">
<path d="M8.55794 21.5458C10.7273 21.5458 12.4859 19.9927 12.4859 17.6178V0H17.1967C16.9325 3.213 20.1265 6.31667 23.649 6.24569V10.6754C20.6365 10.6754 18.0749 9.40162 17.1833 8.69471V17.6178C17.1833 21.5458 14.0932 26 8.55794 26C3.02266 26 0 21.5458 0 17.6178C0 12.0738 5.86696 8.85847 9.75277 9.64433V14.1562C9.55729 14.0871 9.05317 13.9849 8.62379 13.9849C6.4364 13.9042 4.62995 15.6783 4.62995 17.6178C4.62995 19.7871 6.38857 21.5458 8.55794 21.5458Z" fill="white" />
</symbol><symbol viewBox="0 0 18 9" fill="none" id="icon-vector">
<path d="M16.2798 3.58789L0 3.58789L1.49163e-07 5.35744L16.2798 5.35744V3.58789Z" fill="#27AAE2" />
<path d="M13.1748 8.85435L11.9235 7.60308L15.0267 4.49993L11.9235 1.39678L13.1748 0.145508L17.5292 4.49993L13.1748 8.85435Z" fill="#27AAE2" />
</symbol><symbol viewBox="0 0 24 24" fill="none" id="icon-wa">
<path d="M12 0C5.37522 0 0 5.37522 0 12C0 14.6527 0.858639 17.096 2.31065 19.0855L0.78185 23.6091L5.54974 22.1222C7.41361 23.3089 9.62653 24 12 24C18.6248 24 24 18.6248 24 12C24 5.37522 18.6248 0 12 0ZM17.4939 18.4363C15.3159 19.3089 12.719 18.4642 9.87784 16.3072C7.03665 14.1501 5.16579 11.1134 5.04014 8.85864C4.91448 6.60384 6.75044 5.46597 7.74869 5.47295C8.74695 5.47993 9.84293 8.67016 9.85689 9.15881C9.87086 9.65445 8.63525 10.534 8.58639 10.9529C8.53752 11.3717 10.2688 13.438 11.0017 13.9965C11.7277 14.548 13.2286 15.6091 14.0035 15.5113C14.7714 15.4066 15.281 13.8639 15.7696 13.7661C16.2583 13.6684 18.925 14.9948 19.1902 15.3368C19.4555 15.6859 19.4276 17.6684 17.4939 18.4363Z" fill="white" />
</symbol><symbol viewBox="0 0 30 22" fill="none" id="icon-yt">
<path fill-rule="evenodd" clip-rule="evenodd" d="M26.7379 0.809494C28.0229 1.15546 29.0361 2.16863 29.3821 3.45363C30.0246 5.80124 29.9999 10.6941 29.9999 10.6941C29.9999 10.6941 29.9999 15.5623 29.3821 17.9099C29.0361 19.1949 28.0229 20.2081 26.7379 20.5541C24.3903 21.1718 14.9999 21.1718 14.9999 21.1718C14.9999 21.1718 5.63424 21.1718 3.26193 20.5293C1.97693 20.1834 0.963752 19.1702 0.61779 17.8852C0 15.5623 0 10.6694 0 10.6694C0 10.6694 0 5.80124 0.61779 3.45363C0.963752 2.16863 2.00164 1.13074 3.26193 0.784782C5.60953 0.166992 14.9999 0.166992 14.9999 0.166992C14.9999 0.166992 24.3903 0.166992 26.7379 0.809494ZM19.8187 10.4978L12.0098 14.9953V6.00033L19.8187 10.4978Z" fill="white" />
</symbol></defs><use id="icon-cart-usage" xlink:href="#icon-cart" class="sprite-symbol-usage" /><use id="icon-chevrone-usage" xlink:href="#icon-chevrone" class="sprite-symbol-usage" /><use id="icon-email-usage" xlink:href="#icon-email" class="sprite-symbol-usage" /><use id="icon-fb-usage" xlink:href="#icon-fb" class="sprite-symbol-usage" /><use id="icon-ig-usage" xlink:href="#icon-ig" class="sprite-symbol-usage" /><use id="icon-person-usage" xlink:href="#icon-person" class="sprite-symbol-usage" /><use id="icon-phone-usage" xlink:href="#icon-phone" class="sprite-symbol-usage" /><use id="icon-star-usage" xlink:href="#icon-star" class="sprite-symbol-usage" /><use id="icon-tt-usage" xlink:href="#icon-tt" class="sprite-symbol-usage" /><use id="icon-vector-usage" xlink:href="#icon-vector" class="sprite-symbol-usage" /><use id="icon-wa-usage" xlink:href="#icon-wa" class="sprite-symbol-usage" /><use id="icon-yt-usage" xlink:href="#icon-yt" class="sprite-symbol-usage" /></svg>